# xmcd
#
# Track frame offsets:
#	150
#	25983
#	46117
#	58678
#	79576
#	105503
#	118304
#	140480
#	153078
#	171990
#	192243
#	201558
#
# Disc length: 2924 seconds
# Revision: 1
# Processed by: cddbd v1.5.2PL0 Copyright (c) Steve Scherf et al.
# Submitted via: dBpowerAMP V12.0
#
DISCID=a30b6a0c
DTITLE=The Soul of John Black - The Good Girl Blues
DYEAR=2007
DGENRE=Blues
TTITLE0=The Hole
TTITLE1=The Moon Blues
TTITLE2=I Got Work
TTITLE3=Good Girl
TTITLE4=Fire Blues
TTITLE5=Moanin'
TTITLE6=Slipin' and Slidin'
TTITLE7=Swamp Thang
TTITLE8=One Hit
TTITLE9=Feelin's
TTITLE10=Deez Blues
TTITLE11=The Hole (Short Version)
EXTD=
EXTT0=
EXTT1=
EXTT2=
EXTT3=
EXTT4=
EXTT5=
EXTT6=
EXTT7=
EXTT8=
EXTT9=
EXTT10=
EXTT11=
PLAYORDER=
